<svg xmlns="http://www.w3.org/2000/svg" version="1.1" xmlns:xlink="http://www.w3.org/1999/xlink" xmlns:svgjs="http://svgjs.dev/svgjs" width="1000" height="623" viewBox="0 0 1000 623"><g transform="matrix(1,0,0,1,-0.6060606060606233,0.2522267206477409)"><svg viewBox="0 0 396 247" data-background-color="#ffffff" preserveAspectRatio="xMidYMid meet" height="623" width="1000" xmlns="http://www.w3.org/2000/svg" xmlns:xlink="http://www.w3.org/1999/xlink"><g id="tight-bounds" transform="matrix(1,0,0,1,0.2400000000000091,-0.09999999999999432)"><svg viewBox="0 0 395.52 247.2" height="247.2" width="395.52"><g><svg></svg></g><g><svg viewBox="0 0 395.52 247.2" height="247.2" width="395.52"><g transform="matrix(1,0,0,1,75.54432,79.51644250148433)"><svg viewBox="0 0 244.43135999999998 88.1671149970313" height="88.1671149970313" width="244.43135999999998"><g><svg viewBox="0 0 244.43135999999998 88.1671149970313" height="88.1671149970313" width="244.43135999999998"><g><svg viewBox="0 0 356.4318390252106 128.56601926994594" height="88.1671149970313" width="244.43135999999998"><g transform="matrix(1,0,0,1,112.00047902521061,17.76853088318356)"><svg viewBox="0 0 244.43135999999998 93.02895750357882" height="93.02895750357882" width="244.43135999999998"><g id="textblocktransform"><svg viewBox="0 0 244.43135999999998 93.02895750357882" height="93.02895750357882" width="244.43135999999998" id="textblock"><g><svg viewBox="0 0 244.43135999999998 53.0267140564636" height="53.0267140564636" width="244.43135999999998"><g transform="matrix(1,0,0,1,0,0)"><svg width="244.43135999999998" viewBox="2.5 -35.75 168.24000549316406 36.5" height="53.0267140564636" data-palette-color="#4790fc"><path d="M2.5 0L2.5-0.75 5.5-1.5 5.5-33.5 2.5-34.25 2.5-35 15.75-35Q24.25-35 28-32.43 31.75-29.85 31.75-25.25L31.75-25.25Q31.75-22.15 30.1-20.23 28.45-18.3 25.85-17.35L25.85-17.35Q23.1-16.3 20-16.25L20-16.25 20-16Q21.85-15.9 23.25-15.45L23.25-15.45Q26.75-14.35 28-11.5L28-11.5 32.5-1.5 35-0.75 35 0 28 0Q23.9 0 22-4.25L22-4.25 17-15.5 13.75-15.5 13.75-1.5 17.25-0.75 17.25 0 2.5 0ZM13.75-16.75L15.75-16.75Q19.25-16.75 21.25-18.95 23.25-21.15 23.25-25.25L23.25-25.25Q23.25-29.35 21.25-31.55 19.25-33.75 15.75-33.75L15.75-33.75 13.75-33.75 13.75-16.75ZM37.5 0L37.5-0.75 40.5-1.5 40.5-33.5 37.5-34.25 37.5-35 64.25-35 64.25-26 62.75-26Q61.8-26.75 61.1-27.9L61.1-27.9Q59.5-30.6 59.5-33.75L59.5-33.75 48.75-33.75 48.75-18 54.5-18Q54.85-19.9 55.8-21.55L55.8-21.55Q56.2-22.3 56.75-23L56.75-23 58.25-23 58.25-11.75 56.75-11.75Q56.2-12.45 55.8-13.2L55.8-13.2Q54.85-14.85 54.5-16.75L54.5-16.75 48.75-16.75 48.75-1.25 60.5-1.25Q60.5-4.4 62.1-7.1L62.1-7.1Q62.8-8.25 63.75-9L63.75-9 65.25-9 65.25 0 37.5 0ZM69.25 0L69.25-1.25 87.8-33.75 74.75-33.75Q74.75-30.7 73.09-27.9L73.09-27.9Q72.4-26.75 71.5-26L71.5-26 70-26 70-35 97-35 97-33.75 78.5-1.25 92-1.25Q92-4.4 93.59-7.1L93.59-7.1Q94.3-8.25 95.25-9L95.25-9 96.75-9 96.75 0 69.25 0ZM116.49 0.75Q111.59 0.75 107.92-1.38 104.24-3.5 102.24-7.6 100.24-11.7 100.24-17.5L100.24-17.5Q100.24-23.3 102.24-27.4 104.24-31.5 107.92-33.63 111.59-35.75 116.49-35.75L116.49-35.75Q121.39-35.75 125.07-33.63 128.74-31.5 130.74-27.4 132.74-23.3 132.74-17.5L132.74-17.5Q132.74-11.7 130.74-7.6 128.74-3.5 125.07-1.38 121.39 0.75 116.49 0.75L116.49 0.75ZM116.49-0.25Q118.44-0.25 120.12-1.9 121.79-3.55 122.89-7.4 123.99-11.25 123.99-17.5L123.99-17.5Q123.99-23.75 122.89-27.6 121.79-31.45 120.12-33.1 118.44-34.75 116.49-34.75L116.49-34.75Q114.54-34.75 112.87-33.1 111.19-31.45 110.09-27.6 108.99-23.75 108.99-17.5L108.99-17.5Q108.99-11.25 110.09-7.4 111.19-3.55 112.87-1.9 114.54-0.25 116.49-0.25L116.49-0.25ZM165.24 0.75L141.99-26.5 141.99-2.25 145.99-0.75 145.99 0 136.49 0 136.49-0.75 140.49-2.25 140.49-33.25 136.99-34.25 136.99-35 142.24-35Q144.89-35 146.39-34.05 147.89-33.1 149.24-31.5L149.24-31.5 165.24-12.75 165.24-32.75 161.24-34.25 161.24-35 170.74-35 170.74-34.25 166.74-32.75 166.74 0.75 165.24 0.75Z" opacity="1" transform="matrix(1,0,0,1,0,0)" fill="#4790fc" class="wordmark-text-0" data-fill-palette-color="primary" id="text-0"></path></svg></g></svg></g><g transform="matrix(1,0,0,1,0,65.5450486040573)"><svg viewBox="0 0 244.43135999999998 27.48390889952153" height="27.48390889952153" width="244.43135999999998"><g transform="matrix(1,0,0,1,0,0)"><svg width="244.43135999999998" viewBox="3.3499999046325684 -37 417.9499816894531 47" height="27.48390889952153" data-palette-color="#ed2326"><path d="M5.7-32.05L5.7-32.05Q3.35-32.05 3.35-34.1L3.35-34.1 3.35-34.9Q3.35-36.95 5.7-36.95L5.7-36.95Q8.05-36.95 8.05-34.9L8.05-34.9 8.05-34.1Q8.05-32.05 5.7-32.05ZM3.8 0L3.8-25.8 7.6-25.8 7.6 0 3.8 0ZM17.1-32.05L17.1-32.05Q14.75-32.05 14.75-34.1L14.75-34.1 14.75-34.9Q14.75-36.95 17.1-36.95L17.1-36.95Q19.45-36.95 19.45-34.9L19.45-34.9 19.45-34.1Q19.45-32.05 17.1-32.05ZM15.2 0L15.2-25.8 19-25.8 19 0 15.2 0ZM26.59 0L26.59-37 30.39-37 30.39-18 30.09-12.95 30.49-12.95 34.09-17.8 40.55-25.8 45.14-25.8 36.59-15.55 45.89 0 41.34 0 33.8-13.3 30.39-9.3 30.39 0 26.59 0ZM58.79 0.6L58.79 0.6Q56.54 0.6 54.59-0.15 52.64-0.9 51.24-2.55 49.84-4.2 49.04-6.75 48.24-9.3 48.24-12.9L48.24-12.9Q48.24-16.5 49.04-19.05 49.84-21.6 51.24-23.25 52.64-24.9 54.59-25.65 56.54-26.4 58.79-26.4L58.79-26.4Q61.04-26.4 62.99-25.65 64.94-24.9 66.34-23.25 67.74-21.6 68.54-19.05 69.34-16.5 69.34-12.9L69.34-12.9Q69.34-9.3 68.54-6.75 67.74-4.2 66.34-2.55 64.94-0.9 62.99-0.15 61.04 0.6 58.79 0.6ZM58.79-2.8L58.79-2.8Q61.89-2.8 63.57-4.65 65.24-6.5 65.24-10.3L65.24-10.3 65.24-15.5Q65.24-19.3 63.57-21.15 61.89-23 58.79-23L58.79-23Q55.69-23 54.02-21.15 52.34-19.3 52.34-15.5L52.34-15.5 52.34-10.3Q52.34-6.5 54.02-4.65 55.69-2.8 58.79-2.8ZM85.79 0L85.79-37 89.59-37 89.59-21.6 90.09-21.6Q90.84-24.15 92.51-25.28 94.19-26.4 96.59-26.4L96.59-26.4Q98.89-26.4 100.64-25.45 102.39-24.5 103.59-22.75 104.79-21 105.39-18.5 105.99-16 105.99-12.9L105.99-12.9Q105.99-9.8 105.39-7.3 104.79-4.8 103.59-3.05 102.39-1.3 100.64-0.35 98.89 0.6 96.59 0.6L96.59 0.6Q94.19 0.6 92.51-0.53 90.84-1.65 90.09-4.2L90.09-4.2 89.59-4.2 89.59 0 85.79 0ZM95.44-2.8L95.44-2.8Q98.59-2.8 100.24-4.78 101.89-6.75 101.89-10.3L101.89-10.3 101.89-15.5Q101.89-19.05 100.24-21.03 98.59-23 95.44-23L95.44-23Q94.24-23 93.16-22.65 92.09-22.3 91.31-21.65 90.54-21 90.06-20.1 89.59-19.2 89.59-18.1L89.59-18.1 89.59-7.7Q89.59-6.6 90.06-5.7 90.54-4.8 91.31-4.15 92.09-3.5 93.16-3.15 94.24-2.8 95.44-2.8ZM126.24 0L126.24-4.2 125.74-4.2Q124.99-1.8 123.41-0.6 121.84 0.6 119.14 0.6L119.14 0.6Q115.69 0.6 113.71-1.75 111.74-4.1 111.74-9L111.74-9 111.74-25.8 115.54-25.8 115.54-9.25Q115.54-6.15 116.81-4.5 118.09-2.85 120.74-2.85L120.74-2.85Q123.04-2.85 124.64-4.25 126.24-5.65 126.24-8.2L126.24-8.2 126.24-25.8 130.04-25.8 130.04 0 126.24 0ZM144.78 0.6L144.78 0.6Q141.58 0.6 139.31-0.7 137.03-2 135.43-4.3L135.43-4.3 138.08-6.5Q139.43-4.6 141.01-3.6 142.58-2.6 144.78-2.6L144.78-2.6Q147.03-2.6 148.36-3.73 149.68-4.85 149.68-6.95L149.68-6.95Q149.68-8.65 148.83-9.7 147.98-10.75 145.68-11.15L145.68-11.15 143.73-11.5Q139.98-12.2 138.16-13.85 136.33-15.5 136.33-18.85L136.33-18.85Q136.33-20.8 136.93-22.23 137.53-23.65 138.63-24.58 139.73-25.5 141.26-25.93 142.78-26.35 144.58-26.35L144.58-26.35Q147.48-26.35 149.46-25.33 151.43-24.3 152.88-22.35L152.88-22.35 150.43-20.1Q149.58-21.3 148.18-22.23 146.78-23.15 144.58-23.15L144.58-23.15Q140.03-23.15 140.03-19L140.03-19Q140.03-17.1 141.01-16.23 141.98-15.35 144.18-14.95L144.18-14.95 146.13-14.6Q150.08-13.9 151.73-12.15 153.38-10.4 153.38-7.4L153.38-7.4Q153.38-3.65 151.21-1.53 149.03 0.6 144.78 0.6ZM161.48-32.05L161.48-32.05Q159.13-32.05 159.13-34.1L159.13-34.1 159.13-34.9Q159.13-36.95 161.48-36.95L161.48-36.95Q163.83-36.95 163.83-34.9L163.83-34.9 163.83-34.1Q163.83-32.05 161.48-32.05ZM159.58 0L159.58-25.8 163.38-25.8 163.38 0 159.58 0ZM174.78 0L170.98 0 170.98-25.8 174.78-25.8 174.78-21.6 175.28-21.6Q176.03-24 177.6-25.2 179.18-26.4 181.88-26.4L181.88-26.4Q185.33-26.4 187.3-24.05 189.28-21.7 189.28-16.8L189.28-16.8 189.28 0 185.48 0 185.48-16.55Q185.48-19.65 184.2-21.3 182.93-22.95 180.28-22.95L180.28-22.95Q177.98-22.95 176.38-21.55 174.78-20.15 174.78-17.6L174.78-17.6 174.78 0ZM205.43 0.6L205.43 0.6Q203.18 0.6 201.23-0.15 199.28-0.9 197.88-2.55 196.48-4.2 195.68-6.75 194.88-9.3 194.88-12.9L194.88-12.9Q194.88-16.5 195.68-19.05 196.48-21.6 197.88-23.25 199.28-24.9 201.23-25.65 203.18-26.4 205.43-26.4L205.43-26.4Q207.68-26.4 209.55-25.65 211.43-24.9 212.73-23.25 214.03-21.6 214.75-19.05 215.48-16.5 215.48-12.9L215.48-12.9 215.48-11.95 198.93-11.95 198.93-10.3Q198.93-6.5 200.65-4.63 202.38-2.75 205.43-2.75L205.43-2.75Q208.03-2.75 209.68-3.88 211.33-5 212.28-7.25L212.28-7.25 214.88-5.35Q213.68-2.7 211.35-1.05 209.03 0.6 205.43 0.6ZM205.43-23.2L205.43-23.2Q202.33-23.2 200.63-21.25 198.93-19.3 198.93-15.5L198.93-15.5 198.93-14.85 211.43-14.85 211.43-15.5Q211.43-23.2 205.43-23.2ZM228.52 0.6L228.52 0.6Q225.32 0.6 223.05-0.7 220.77-2 219.17-4.3L219.17-4.3 221.82-6.5Q223.17-4.6 224.75-3.6 226.32-2.6 228.52-2.6L228.52-2.6Q230.77-2.6 232.1-3.73 233.42-4.85 233.42-6.95L233.42-6.95Q233.42-8.65 232.57-9.7 231.72-10.75 229.42-11.15L229.42-11.15 227.47-11.5Q223.72-12.2 221.9-13.85 220.07-15.5 220.07-18.85L220.07-18.85Q220.07-20.8 220.67-22.23 221.27-23.65 222.37-24.58 223.47-25.5 225-25.93 226.52-26.35 228.32-26.35L228.32-26.35Q231.22-26.35 233.2-25.33 235.17-24.3 236.62-22.35L236.62-22.35 234.17-20.1Q233.32-21.3 231.92-22.23 230.52-23.15 228.32-23.15L228.32-23.15Q223.77-23.15 223.77-19L223.77-19Q223.77-17.1 224.75-16.23 225.72-15.35 227.92-14.95L227.92-14.95 229.87-14.6Q233.82-13.9 235.47-12.15 237.12-10.4 237.12-7.4L237.12-7.4Q237.12-3.65 234.95-1.53 232.77 0.6 228.52 0.6ZM250.02 0.6L250.02 0.6Q246.82 0.6 244.55-0.7 242.27-2 240.67-4.3L240.67-4.3 243.32-6.5Q244.67-4.6 246.25-3.6 247.82-2.6 250.02-2.6L250.02-2.6Q252.27-2.6 253.6-3.73 254.92-4.85 254.92-6.95L254.92-6.95Q254.92-8.65 254.07-9.7 253.22-10.75 250.92-11.15L250.92-11.15 248.97-11.5Q245.22-12.2 243.4-13.85 241.57-15.5 241.57-18.85L241.57-18.85Q241.57-20.8 242.17-22.23 242.77-23.65 243.87-24.58 244.97-25.5 246.5-25.93 248.02-26.35 249.82-26.35L249.82-26.35Q252.72-26.35 254.7-25.33 256.67-24.3 258.12-22.35L258.12-22.35 255.67-20.1Q254.82-21.3 253.42-22.23 252.02-23.15 249.82-23.15L249.82-23.15Q245.27-23.15 245.27-19L245.27-19Q245.27-17.1 246.25-16.23 247.22-15.35 249.42-14.95L249.42-14.95 251.37-14.6Q255.32-13.9 256.97-12.15 258.62-10.4 258.62-7.4L258.62-7.4Q258.62-3.65 256.45-1.53 254.27 0.6 250.02 0.6ZM275.42 10L275.42-25.8 279.22-25.8 279.22-21.6 279.72-21.6Q280.47-24.15 282.14-25.28 283.82-26.4 286.22-26.4L286.22-26.4Q288.52-26.4 290.27-25.45 292.02-24.5 293.22-22.75 294.42-21 295.02-18.5 295.62-16 295.62-12.9L295.62-12.9Q295.62-9.8 295.02-7.3 294.42-4.8 293.22-3.05 292.02-1.3 290.27-0.35 288.52 0.6 286.22 0.6L286.22 0.6Q283.82 0.6 282.14-0.53 280.47-1.65 279.72-4.2L279.72-4.2 279.22-4.2 279.22 10 275.42 10ZM285.07-2.8L285.07-2.8Q288.22-2.8 289.87-4.78 291.52-6.75 291.52-10.3L291.52-10.3 291.52-15.5Q291.52-19.05 289.87-21.03 288.22-23 285.07-23L285.07-23Q283.87-23 282.79-22.65 281.72-22.3 280.94-21.65 280.17-21 279.69-20.1 279.22-19.2 279.22-18.1L279.22-18.1 279.22-7.7Q279.22-6.6 279.69-5.7 280.17-4.8 280.94-4.15 281.72-3.5 282.79-3.15 283.87-2.8 285.07-2.8ZM320.61 0L317.91 0Q314.21 0 314.21-3.7L314.21-3.7 314.21-4.2 313.71-4.2Q313.06-1.85 311.34-0.63 309.61 0.6 307.21 0.6L307.21 0.6Q303.46 0.6 301.61-1.3 299.76-3.2 299.76-6.9L299.76-6.9Q299.76-10.5 302.14-12.6 304.51-14.7 309.56-14.7L309.56-14.7 314.21-14.7 314.21-17.55Q314.21-20.4 312.94-21.75 311.66-23.1 308.91-23.1L308.91-23.1Q306.66-23.1 305.29-22.13 303.91-21.15 302.91-19.3L302.91-19.3 300.66-21.4Q301.66-23.5 303.86-24.93 306.06-26.35 309.06-26.35L309.06-26.35Q313.46-26.35 315.74-24.23 318.01-22.1 318.01-17.95L318.01-17.95 318.01-3.35 320.61-3.35 320.61 0ZM308.16-2.7L308.16-2.7Q309.46-2.7 310.59-3.15 311.71-3.6 312.51-4.33 313.31-5.05 313.76-5.98 314.21-6.9 314.21-7.9L314.21-7.9 314.21-11.8 309.46-11.8Q306.46-11.8 305.09-10.8 303.71-9.8 303.71-7.9L303.71-7.9 303.71-6.5Q303.71-4.55 304.91-3.63 306.11-2.7 308.16-2.7ZM329.56 0L325.76 0 325.76-25.8 329.56-25.8 329.56-21 330.06-21Q330.71-23.25 332.29-24.53 333.86-25.8 336.41-25.8L336.41-25.8 337.81-25.8 337.81-21.95 335.31-21.95Q332.61-21.95 331.09-20.75 329.56-19.55 329.56-17.15L329.56-17.15 329.56 0ZM352.81 0L348.16 0Q346.11 0 345.18-0.93 344.26-1.85 344.26-3.9L344.26-3.9 344.26-22.45 340.46-22.45 340.46-25.8 342.71-25.8Q343.86-25.8 344.23-26.38 344.61-26.95 344.61-28.1L344.61-28.1 344.61-32.9 348.06-32.9 348.06-25.8 353.06-25.8 353.06-22.45 348.06-22.45 348.06-3.35 352.81-3.35 352.81 0ZM362.66 0L358.86 0 358.86-25.8 362.66-25.8 362.66-21.6 363.16-21.6Q363.91-24 365.48-25.2 367.06-26.4 369.76-26.4L369.76-26.4Q373.21-26.4 375.18-24.05 377.16-21.7 377.16-16.8L377.16-16.8 377.16 0 373.36 0 373.36-16.55Q373.36-19.65 372.08-21.3 370.81-22.95 368.16-22.95L368.16-22.95Q365.86-22.95 364.26-21.55 362.66-20.15 362.66-17.6L362.66-17.6 362.66 0ZM393.3 0.6L393.3 0.6Q391.05 0.6 389.1-0.15 387.15-0.9 385.75-2.55 384.35-4.2 383.55-6.75 382.75-9.3 382.75-12.9L382.75-12.9Q382.75-16.5 383.55-19.05 384.35-21.6 385.75-23.25 387.15-24.9 389.1-25.65 391.05-26.4 393.3-26.4L393.3-26.4Q395.55-26.4 397.43-25.65 399.3-24.9 400.6-23.25 401.9-21.6 402.63-19.05 403.35-16.5 403.35-12.9L403.35-12.9 403.35-11.95 386.8-11.95 386.8-10.3Q386.8-6.5 388.53-4.63 390.25-2.75 393.3-2.75L393.3-2.75Q395.9-2.75 397.55-3.88 399.2-5 400.15-7.25L400.15-7.25 402.75-5.35Q401.55-2.7 399.23-1.05 396.9 0.6 393.3 0.6ZM393.3-23.2L393.3-23.2Q390.2-23.2 388.5-21.25 386.8-19.3 386.8-15.5L386.8-15.5 386.8-14.85 399.3-14.85 399.3-15.5Q399.3-23.2 393.3-23.2ZM413.05 0L409.25 0 409.25-25.8 413.05-25.8 413.05-21 413.55-21Q414.2-23.25 415.78-24.53 417.35-25.8 419.9-25.8L419.9-25.8 421.3-25.8 421.3-21.95 418.8-21.95Q416.1-21.95 414.58-20.75 413.05-19.55 413.05-17.15L413.05-17.15 413.05 0Z" opacity="1" transform="matrix(1,0,0,1,0,0)" fill="#ed2326" class="slogan-text-1" data-fill-palette-color="secondary" id="text-1"></path></svg></g></svg></g></svg></g></svg></g><g><svg viewBox="0 0 99.48214447761691 128.56601926994594" height="128.56601926994594" width="99.48214447761691"><g><svg xmlns="http://www.w3.org/2000/svg" xmlns:xlink="http://www.w3.org/1999/xlink" version="1.1" x="0" y="0" viewBox="12.982999801635742 1 75.68599700927734 97.81300354003906" enable-background="new 0 0 100 100" xml:space="preserve" height="128.56601926994594" width="99.48214447761691" class="icon-icon-0" data-fill-palette-color="accent" id="icon-0"><g fill="#ed2326" data-fill-palette-color="accent"><polygon fill-rule="evenodd" clip-rule="evenodd" points="12.983,10.59 30.001,98.813 24.129,39.764 53.15,37.872 53.096,27.989    64.549,1 53.622,18.977  " fill="#ed2326" data-fill-palette-color="accent"></polygon><polygon fill-rule="evenodd" clip-rule="evenodd" points="59.389,54.548 64.549,1.007 55.809,40.723 36.197,41.768 37.767,62.23    30.001,98.813 42.058,58.914  " fill="#ed2326" data-fill-palette-color="accent"></polygon><polygon fill-rule="evenodd" clip-rule="evenodd" points="62.8,67.182 63.349,56.729 47.37,60.484 47.338,72.281 30.001,98.813    51.681,71.197  " fill="#ed2326" data-fill-palette-color="accent"></polygon><polygon fill-rule="evenodd" clip-rule="evenodd" points="65.711,62.394 80.552,57.663 82.061,45.131 66.162,47.226  " fill="#ed2326" data-fill-palette-color="accent"></polygon><polygon fill-rule="evenodd" clip-rule="evenodd" points="72.07,44.502 83.058,43.085 84.639,32.807 76.56,32.434 64.549,1    72.979,31.967  " fill="#ed2326" data-fill-palette-color="accent"></polygon><polygon fill-rule="evenodd" clip-rule="evenodd" points="87.413,31.294 88.669,21.788 79.125,19.094 64.549,1 79.032,23.437    78.61,30.437  " fill="#ed2326" data-fill-palette-color="accent"></polygon></g></svg></g></svg></g></svg></g></svg></g></svg></g><g><path d="M0 123.6c0-68.262 55.338-123.6 123.6-123.6 51.095 0 94.948 31.003 113.774 75.224l-1.784 0c-18.726-43.292-61.82-73.584-111.99-73.584-67.357 0-121.96 54.603-121.96 121.96 0 67.357 54.603 121.96 121.96 121.96 50.169 0 93.264-30.292 111.99-73.584h1.784c-18.826 44.221-62.68 75.224-113.774 75.224-68.262 0-123.6-55.338-123.6-123.6z" fill="#4790fc" stroke="transparent" data-fill-palette-color="tertiary"></path></g></svg></g><defs></defs></svg><rect width="395.52" height="247.2" fill="none" stroke="none" visibility="hidden"></rect></g></svg></g></svg>